<?xml version="1.0" standalone="no"?><!DOCTYPE svg PUBLIC "-//W3C//DTD SVG 1.1//EN" "http://www.w3.org/Graphics/SVG/1.1/DTD/svg11.dtd"><svg t="1715771306859" class="icon" viewBox="0 0 1024 1024" version="1.1" xmlns="http://www.w3.org/2000/svg" p-id="2064" xmlns:xlink="http://www.w3.org/1999/xlink" width="200" height="200"><path d="M926.436571 822.198857c-7.721143 58.189714-64.324571 114.797714-122.523428 122.523429-194.610286 24.224-389.220571 24.224-583.830857 0-58.189714-7.721143-114.797714-64.329143-122.523429-122.523429-24.224-194.610286-24.224-389.220571 0-583.830857 7.721143-58.189714 64.333714-114.797714 122.523429-122.523429 194.610286-24.224 389.220571-24.224 583.830857 0 58.189714 7.721143 114.797714 64.338286 122.523428 122.523429 24.224 194.610286 24.224 389.220571 0 583.830857z" fill="#23B0AC" p-id="2065"></path><path d="M499.154286 602.596571a39186.697143 39186.697143 0 0 0-131.145143-130.811428 16099.876571 16099.876571 0 0 1-105.449143 103.748571 10406.372571 10406.372571 0 0 0-64.777143-62.628571 10134.006857 10134.006857 0 0 0 172.155429-169.174857c42.130286 42.4 85.517714 85.947429 129.206857 129.691428a43682.267429 43682.267429 0 0 0 221.650286-223.478857c21.910857 22.221714 44.027429 44.361143 66.230857 66.299429a53158.916571 53158.916571 0 0 0-287.872 286.354285zM213.974857 712.297143c23.670857 1.152 47.346286 2.166857 71.021714 3.044571 0.877714 23.501714 1.92 46.998857 3.136 70.500572a4332.900571 4332.900571 0 0 1-70.038857-4.205715 3631.232 3631.232 0 0 1-4.118857-69.339428zM689.549714 716.978286c23.675429-0.685714 47.350857-1.513143 71.026286-2.473143a4508.754286 4508.754286 0 0 1-3.433143 70.185143c-23.346286 1.325714-46.697143 2.464-70.043428 3.410285 0.946286-23.707429 1.76-47.419429 2.450285-71.122285zM531.017143 719.524571c23.675429-0.077714 47.350857-0.283429 71.026286-0.635428-0.347429 23.949714-0.763429 47.904-1.238858 71.853714-23.350857 0.475429-46.701714 0.772571-70.048 0.868572 0.100571-24.027429 0.187429-48.059429 0.260572-72.086858zM375.030857 718.016c23.675429 0.530286 47.350857 0.923429 71.026286 1.179429 0.256 23.986286 0.557714 47.977143 0.909714 71.968a4313.6 4313.6 0 0 1-70.043428-1.622858c-0.736-23.84-1.366857-47.684571-1.892572-71.524571z" fill="#FFFFFF" p-id="2066"></path></svg>